<svg xmlns="http://www.w3.org/2000/svg" viewBox="0 0 177 171"><g id="ef7d0b67-0c02-46aa-adce-3bf67f3b201e" ><ellipse cx="88.74" cy="159.5" rx="83.5" ry="7.5" fill="#cde5f9"/><rect x="132.87" y="117.71" width="3.76" height="13.28" transform="translate(269.49 248.7) rotate(-180)" fill="#fff"/><path d="M124.91,116.24h19.38a3.6,3.6,0,0,0,3.6-3.6h0a3.61,3.61,0,0,0-3.6-3.61H124.91a3.61,3.61,0,0,0-3.6,3.61h0A3.6,3.6,0,0,0,124.91,116.24Z" fill="#bdd9f4"/><rect x="131.2" y="114.56" width="6.87" height="4.72" transform="translate(269.27 233.83) rotate(-180)" fill="#bdd9f4"/><rect x="131.2" y="128.83" width="6.87" height="20.65" transform="translate(269.27 278.31) rotate(-180)" fill="#bdd9f4"/><rect x="115.62" y="146.94" width="38.82" height="2.87" transform="translate(270.06 296.74) rotate(-180)" fill="#91bfe5"/><rect x="152.17" y="146.94" width="2.28" height="8.93" transform="translate(306.61 302.8) rotate(-180)" fill="#91bfe5"/><path d="M149.92,155.87a3.57,3.57,0,1,0,3.57-3.57A3.56,3.56,0,0,0,149.92,155.87Z" fill="#91bfe5"/><rect x="115.62" y="146.94" width="2.28" height="8.93" transform="translate(233.52 302.8) rotate(-180)" fill="#1c2e34"/><path d="M110.6,106.4a19.94,19.94,0,0,0,19.92-19.92V53.83a3.36,3.36,0,0,1,3.36-3.37h35.94l-2.18,26.37,1,19.83-17.92,11.42-4.23,5H110.6a3.37,3.37,0,1,1,0-6.73Z" fill="#91bfe5"/><path d="M146.53,113.13a26.68,26.68,0,0,0,26.66-26.65V53.83a3.37,3.37,0,1,0-6.74,0V86.48a19.93,19.93,0,0,1-19.92,19.92,3.37,3.37,0,0,0,0,6.73Z" fill="#bdd9f4"/><polygon points="88.7 151.51 88.99 132.21 98.78 131.69 98.51 152.41 89.06 152.47 88.7 151.51" fill="#ffd1b8"/><path d="M99.88,148.36s-8.1,3.33-11.9-1.92L71.3,156.57l31.09-.2Z" fill="#0b181b"/><rect x="71.31" y="156.47" width="31.09" height="2.86" transform="translate(-1.02 0.56) rotate(-0.37)" fill="#fff"/><path d="M88.18,150.87a.48.48,0,0,1-.23-.17,11.38,11.38,0,0,0-2.56-2.5.5.5,0,0,1-.15-.72.58.58,0,0,1,.76-.15,12.24,12.24,0,0,1,2.84,2.75.51.51,0,0,1-.12.73A.55.55,0,0,1,88.18,150.87Z" fill="#fff"/><path d="M85.5,152.21a.6.6,0,0,1-.22-.17,11.29,11.29,0,0,0-2.57-2.5.51.51,0,0,1-.15-.73.57.57,0,0,1,.76-.14,12.16,12.16,0,0,1,2.85,2.75.51.51,0,0,1-.13.73A.55.55,0,0,1,85.5,152.21Z" fill="#fff"/><path d="M82.83,153.55a.66.66,0,0,1-.23-.17,11.38,11.38,0,0,0-2.56-2.5.51.51,0,0,1-.15-.73.56.56,0,0,1,.76-.14,12,12,0,0,1,2.84,2.75.51.51,0,0,1-.12.73A.58.58,0,0,1,82.83,153.55Z" fill="#fff"/><path d="M124.46,87.37l-4.59,3.85c1.33,8.21,5.76,15.66-2.56,15.66H102.56v33.93L86,141l-.92-41.56a11.82,11.82,0,0,1,11.8-12Z" fill="#009aef"/><polygon points="115.22 151.51 115.51 132.21 125.3 131.69 125.03 152.41 115.58 152.47 115.22 151.51" fill="#ffd1b8"/><path d="M126.4,148.36s-8.1,3.33-11.9-1.92L97.82,156.57l31.09-.2Z" fill="#0b181b"/><rect x="97.83" y="156.47" width="31.09" height="2.86" transform="translate(-1.02 0.73) rotate(-0.37)" fill="#fff"/><path d="M114.7,150.87a.48.48,0,0,1-.23-.17,11.38,11.38,0,0,0-2.56-2.5.5.5,0,0,1-.15-.72.58.58,0,0,1,.76-.15,12.24,12.24,0,0,1,2.84,2.75.51.51,0,0,1-.12.73A.55.55,0,0,1,114.7,150.87Z" fill="#fff"/><path d="M112,152.21a.6.6,0,0,1-.22-.17,11.29,11.29,0,0,0-2.57-2.5.51.51,0,0,1-.15-.73.57.57,0,0,1,.76-.14,12.16,12.16,0,0,1,2.85,2.75.51.51,0,0,1-.13.73A.55.55,0,0,1,112,152.21Z" fill="#fff"/><path d="M109.35,153.55a.66.66,0,0,1-.23-.17,11.38,11.38,0,0,0-2.56-2.5.51.51,0,0,1-.15-.73.56.56,0,0,1,.76-.14,12,12,0,0,1,2.84,2.75.51.51,0,0,1-.12.73A.58.58,0,0,1,109.35,153.55Z" fill="#fff"/><path d="M145.29,87.37l.63,3.85a13.49,13.49,0,0,1-13.32,15.66h-4v33.93l-16.55.22-.93-41.56a11.83,11.83,0,0,1,11.81-12Z" fill="#3ea8ff"/><path d="M76.11,75.59c3.55-.9,7.1.6,8.48,1.29l16-3.36,2.28-16.87h10.84s-2.74,23.55-2.5,24.26c0,.14-.36,0-1-.27l-.33,1.72-21.26-.3-18.14.23C70.18,79.22,73.13,76.36,76.11,75.59Z" fill="#ffd1b8"/><path d="M112.8,40.85s-8.19,1.29-10,8.27c-2.44,9.1-3.36,10.41-3.36,10.41l12.37,1.8Z" fill="#fff"/><path d="M128.53,38.53,112.8,40.85a3.28,3.28,0,0,0-2.8,3.21l-.37,37.31,35.09.1,2.38-32.55-1.31-4.41a5.59,5.59,0,0,0-4.47-3.93Z" fill="#fff"/><path d="M111.49,77.39c4.46-.84,9.85,1.27,9.85,1.27l22.92-5.1,0,0-5.46-14.13,12.77-4.06,3.93,12.22c5.95,13.9-6.16,16.35-6.16,16.35l-24.71-.17h0l-18,.17h0A6.12,6.12,0,0,1,111.49,77.39Z" fill="#ffd1b8"/><line x1="144.26" y1="73.56" x2="149.92" y2="72.77" fill="none" stroke="#3c4649" stroke-miterlimit="10" stroke-width="0.5"/><path d="M132.43,39.85s12.21-.11,15.25,3.5C151.5,47.89,156,59.5,156,59.5l-19.86,4.38Z" fill="#fff"/><path d="M119.74,39.83l2.83-.42c0-.24,0-.47,0-.72l.32-8.31,8.95-3.72.09,12.41,3.22.52s-1.07,5.8-8.5,5.58S119.74,39.83,119.74,39.83Z" fill="#ffd1b8"/><path d="M118,10.75s-6.23,5.86-.09,8Z" fill="#c56100"/><path d="M121.74,21.19A4.18,4.18,0,1,1,117.45,17,4.27,4.27,0,0,1,121.74,21.19Z" fill="#009aef"/><path d="M122.64,35.9s6.74.84,9.15-6.7c.75-2.37-8.9.33-8.9.33Z" fill="#0b181b"/><path d="M125.27,32.9h0c-4.74-.18-8.51-4.19-8.49-8.2l.09-8.38A9.21,9.21,0,0,1,125.63,7h0c5-.15,10,3.86,10.14,9l-.15,6.53A10.44,10.44,0,0,1,125.27,32.9Z" fill="#ffd1b8"/><polyline points="121.77 22.43 121.54 24.04 122.72 24.13" fill="none" stroke="#0b181b" stroke-linecap="round" stroke-linejoin="round" stroke-width="0.53"/><path d="M127,17.53s-1.94-.24-2,.57c0,0,0,.56,1.67.74s2.14.06,2.31-.45S128,17.57,127,17.53Z" fill="#c56100"/><path d="M119.2,17.26s1.61-.11,1.71.67c0,0,0,.52-1.36.58s-1.86-.14-2-.57S118.43,17.24,119.2,17.26Z" fill="#c56100"/><path d="M120.2,20.71a.82.82,0,1,1-.8-.85A.81.81,0,0,1,120.2,20.71Z" fill="#0b181b"/><path d="M127.36,20.75a.82.82,0,1,1-.81-.85A.83.83,0,0,1,127.36,20.75Z" fill="#0b181b"/><path d="M111.88,7.93l3.6-.51-2.1-1.33a19.06,19.06,0,0,1,5.72-.84,17,17,0,0,1,7.72-2c4.19,0,7.75,2.22,9.05,4.71h0a3.82,3.82,0,0,1,3.94,3.71c.62,5.09-5.51,13.5-5.51,13.5l-.68-6.65c-3.8-.27-4-3.62-3.68-5.8a46.05,46.05,0,0,1-12.21-.5,5.48,5.48,0,0,1-1.76-.48C113.79,11,112.17,9.81,111.88,7.93Z" fill="#c56100"/><path d="M140,22.56a3.4,3.4,0,0,1-3.24,3.55,3.36,3.36,0,0,1-3.43-3.34,3.34,3.34,0,1,1,6.67-.21Z" fill="#ffba99"/><path d="M135.54,23.53s-.07-2.5,2.25-2.18" fill="none" stroke="#312220" stroke-linecap="round" stroke-linejoin="round" stroke-width="0.56"/><path d="M123.7,3.15l-.11.48s6,.63,8.78,4.3c3.07,4.08,3.11,9.59,3.11,9.59l1.31.11L136.7,8.9l-2.61-2.73-4.17-2.49L127,2.75Z" fill="#009aef"/><path d="M131.86,20.7c-.63,2.87,1.23,5.71,4.87,6.5,2.57.56,3.83-1.6,4.45-4.47a4.8,4.8,0,1,0-9.32-2Z" fill="#009aef"/><path d="M132.37,6.52c-2.81-3.13-8.67-3.37-8.67-3.37a4.32,4.32,0,0,1,.83-.52,6.76,6.76,0,0,1,3.86-.44l1.07.17a10.91,10.91,0,0,1,8.94,8.38,20.44,20.44,0,0,1,.34,6l.24,0A5.06,5.06,0,0,1,142.52,23a4.8,4.8,0,1,1-9.33-2,5.5,5.5,0,0,1,3-3.87A16,16,0,0,0,132.37,6.52Z" fill="#3ea8ff"/><polygon points="95.19 65.03 92.07 67.27 69.94 48.59 16.04 18.83 18.95 16.72 55.92 28.08 95.19 65.03" fill="#bdd9f4"/><path d="M87.55,18.44,96.32,62a3,3,0,0,1-2.95,3.61H30.2a3,3,0,0,1-2.94-2.38l-9.34-43.6A3,3,0,0,1,20.87,16H84.59A3,3,0,0,1,87.55,18.44Z" fill="#bdd9f4"/><path d="M84.7,20.5l8.78,43.6a3,3,0,0,1-3,3.6H27.35a3,3,0,0,1-2.94-2.38l-9.34-43.6A3,3,0,0,1,18,18.08H81.75A3,3,0,0,1,84.7,20.5Z" fill="#fff"/><polygon points="61.7 56.18 62.88 67.7 57.76 67.7 61.7 56.18" fill="#91bfe5"/><circle cx="51.69" cy="36.08" r="4.23" fill="#fff"/><path d="M26.12,79.35H38.24l8.11-23.41H61.71L57,79.35H71.08a1.25,1.25,0,0,1,0,2.5h-45a1.25,1.25,0,0,1,0-2.5Z" fill="#bdd9f4"/><path d="M82.16,79.35H106a1.25,1.25,0,0,1,1.25,1.25h0A1.25,1.25,0,0,1,106,81.85H82.16a1.25,1.25,0,0,1-1.24-1.25h0A1.25,1.25,0,0,1,82.16,79.35Z" fill="#bdd9f4"/><line x1="20.35" y1="84.82" x2="20.35" y2="156" fill="none" stroke="#91bfe5" stroke-linecap="round" stroke-miterlimit="10" stroke-width="3"/><line x1="67.01" y1="85.82" x2="67.01" y2="161.43" fill="none" stroke="#91bfe5" stroke-linecap="round" stroke-miterlimit="10" stroke-width="3"/><polyline points="151.09 87.67 151.09 81.75 106.95 81.75 106.95 87.67" fill="#fff"/><rect x="9.35" y="81.75" width="115.68" height="5.92" transform="translate(134.39 169.43) rotate(-180)" fill="#fff"/><path d="M121,26.77s.32.76,1.72.76a2.32,2.32,0,0,0,1.84-.76" fill="none" stroke="#0b181b" stroke-linecap="round" stroke-linejoin="round" stroke-width="0.53"/></g></svg>
